<?xml version="1.0" standalone="no"?>
<!DOCTYPE svg PUBLIC "-//W3C//DTD SVG 20010904//EN"
 "http://www.w3.org/TR/2001/REC-SVG-20010904/DTD/svg10.dtd">
<svg version="1.0" xmlns="http://www.w3.org/2000/svg"
 width="512.000000pt" height="512.000000pt" viewBox="0 0 512.000000 512.000000"
 preserveAspectRatio="xMidYMid meet">
<metadata>
Created by potrace 1.14, written by Peter Selinger 2001-2017
</metadata>
<g transform="translate(0.000000,512.000000) scale(0.100000,-0.100000)"
fill="#000000" stroke="none">
<path d="M0 2560 l0 -2560 2560 0 2560 0 0 2560 0 2560 -2560 0 -2560 0 0
-2560z m3305 1960 c26 -13 49 -34 63 -59 l22 -39 -2 -989 c-3 -970 -3 -988
-23 -1015 -11 -15 -38 -37 -61 -48 -39 -19 -59 -20 -740 -20 l-699 0 -370
-370 c-249 -250 -378 -371 -396 -375 -31 -7 -83 16 -93 40 -3 9 -6 172 -6 361
l0 344 -248 0 c-237 0 -250 1 -292 23 -33 16 -51 34 -67 67 l-23 44 0 961 c0
915 1 962 19 1001 17 38 54 73 91 87 8 3 638 6 1399 6 1365 1 1385 1 1426 -19z"/>
</g>
</svg>
